<svg width="1200" height="900" viewBox="0 0 1200 900" fill="none" xmlns="http://www.w3.org/2000/svg">
  <rect width="1200" height="900" fill="#F4F2FF"/>
  <rect x="56" y="56" width="1088" height="788" rx="24" fill="#FFFFFF" stroke="#D9D2FF" stroke-width="2"/>
  <rect x="96" y="96" width="1008" height="58" rx="14" fill="#E7E2FF"/>
  <rect x="122" y="116" width="168" height="18" rx="9" fill="#2E1C8F"/>
  <rect x="788" y="114" width="118" height="22" rx="11" fill="#D9D2FF"/>
  <rect x="922" y="114" width="144" height="22" rx="11" fill="#2E1C8F"/>

  <rect x="96" y="194" width="258" height="608" rx="18" fill="#F4F2FF" stroke="#D9D2FF" stroke-width="2"/>
  <rect x="388" y="194" width="716" height="284" rx="18" fill="#F4F2FF" stroke="#D9D2FF" stroke-width="2"/>

  <rect x="420" y="230" width="228" height="18" rx="9" fill="#4F2EDC"/>
  <rect x="420" y="266" width="412" height="12" rx="6" fill="#BDB2FF"/>
  <rect x="420" y="288" width="384" height="12" rx="6" fill="#D9D2FF"/>

  <rect x="420" y="336" width="232" height="110" rx="14" fill="#E7E2FF"/>
  <rect x="674" y="336" width="190" height="110" rx="14" fill="#F4F2FF"/>
  <rect x="886" y="336" width="186" height="110" rx="14" fill="#2E1C8F"/>

  <rect x="420" y="500" width="684" height="302" rx="18" fill="#F4F2FF" stroke="#D9D2FF" stroke-width="2"/>

  <rect x="122" y="228" width="92" height="14" rx="7" fill="#6C4CFF"/>
  <rect x="122" y="270" width="206" height="42" rx="12" fill="#4F2EDC"/>

  <rect x="122" y="334" width="164" height="12" rx="6" fill="#BDB2FF"/>
  <rect x="122" y="356" width="188" height="12" rx="6" fill="#D9D2FF"/>

  <rect x="122" y="416" width="168" height="110" rx="14" fill="#E7E2FF"/>

  <rect x="122" y="548" width="206" height="18" rx="9" fill="#D9D2FF"/>
  <rect x="122" y="582" width="206" height="18" rx="9" fill="#E7E2FF"/>
  <rect x="122" y="616" width="206" height="18" rx="9" fill="#F4F2FF"/>

  <rect x="454" y="536" width="300" height="16" rx="8" fill="#6C4CFF"/>
  <rect x="454" y="568" width="618" height="12" rx="6" fill="#BDB2FF"/>
  <rect x="454" y="592" width="584" height="12" rx="6" fill="#D9D2FF"/>

  <rect x="454" y="634" width="618" height="122" rx="16" fill="#FFFFFF" stroke="#D9D2FF" stroke-width="2"/>

  <rect x="484" y="668" width="168" height="14" rx="7" fill="#4F2EDC"/>
  <rect x="484" y="700" width="540" height="10" rx="5" fill="#D9D2FF"/>
  <rect x="484" y="722" width="492" height="10" rx="5" fill="#E7E2FF"/>
</svg>