<svg width="1200" height="900" viewBox="0 0 1200 900" fill="none" xmlns="http://www.w3.org/2000/svg">
  <rect width="1200" height="900" fill="#F4F2FF"/>
  <rect x="54" y="54" width="1092" height="792" rx="24" fill="#FFFFFF" stroke="#D9D2FF" stroke-width="2"/>
  <rect x="92" y="92" width="1016" height="64" rx="16" fill="#E7E2FF"/>
  <rect x="126" y="116" width="184" height="18" rx="9" fill="#2E1C8F"/>

  <rect x="92" y="188" width="274" height="620" rx="18" fill="#F4F2FF" stroke="#D9D2FF" stroke-width="2"/>
  <rect x="398" y="188" width="710" height="296" rx="18" fill="#F4F2FF" stroke="#D9D2FF" stroke-width="2"/>
  <rect x="398" y="514" width="710" height="294" rx="18" fill="#F4F2FF" stroke="#D9D2FF" stroke-width="2"/>

  <rect x="126" y="224" width="88" height="14" rx="7" fill="#6C4CFF"/>
  <rect x="126" y="264" width="206" height="18" rx="9" fill="#4F2EDC"/>

  <rect x="126" y="306" width="208" height="92" rx="16" fill="#E7E2FF"/>

  <rect x="126" y="424" width="208" height="18" rx="9" fill="#D9D2FF"/>
  <rect x="126" y="458" width="208" height="18" rx="9" fill="#E7E2FF"/>
  <rect x="126" y="492" width="208" height="18" rx="9" fill="#F4F2FF"/>

  <rect x="126" y="544" width="208" height="208" rx="16" fill="#FFFFFF" stroke="#D9D2FF" stroke-width="2"/>

  <rect x="432" y="224" width="220" height="18" rx="9" fill="#4F2EDC"/>
  <rect x="432" y="260" width="534" height="12" rx="6" fill="#BDB2FF"/>
  <rect x="432" y="282" width="502" height="12" rx="6" fill="#D9D2FF"/>

  <rect x="432" y="330" width="304" height="118" rx="16" fill="#FFFFFF" stroke="#D9D2FF" stroke-width="2"/>
  <rect x="760" y="330" width="312" height="118" rx="16" fill="#2E1C8F"/>

  <rect x="432" y="550" width="238" height="18" rx="9" fill="#4F2EDC"/>
  <rect x="432" y="586" width="572" height="12" rx="6" fill="#BDB2FF"/>
  <rect x="432" y="608" width="544" height="12" rx="6" fill="#D9D2FF"/>

  <rect x="432" y="648" width="640" height="126" rx="16" fill="#E7E2FF"/>
</svg>